HIERARCHY
ROOT Hips
{
	OFFSET 0.000000 0.000000 0.000000
	CHANNELS 6 Xposition Yposition Zposition Zrotation Yrotation Xrotation 
	JOINT LowerBack
	{
		OFFSET 0.000000 0.000000 0.000000
		CHANNELS 3 Zrotation Yrotation Xrotation
		JOINT Spine
		{
			OFFSET 0.028270 2.035590 -0.193380
			CHANNELS 3 Zrotation Yrotation Xrotation
			JOINT Spine1
			{
				OFFSET 0.056720 2.048850 -0.042750
				CHANNELS 3 Zrotation Yrotation Xrotation
				JOINT Neck
				{
					OFFSET 0.000000 0.000000 0.000000
					CHANNELS 3 Zrotation Yrotation Xrotation
					JOINT Neck1
					{
						OFFSET -0.054170 1.746240 0.172020
						CHANNELS 3 Zrotation Yrotation Xrotation
						JOINT Head
						{
							OFFSET 0.104070 1.761360 -0.123970
							CHANNELS 3 Zrotation Yrotation Xrotation
							End Site
							{
								OFFSET 0.000000 0.000000 0.000000
							}
						}
					}
				}
				JOINT LeftShoulder
				{
					OFFSET 0.000000 0.000000 0.000000
					CHANNELS 3 Zrotation Yrotation Xrotation
					JOINT LeftArm
					{
						OFFSET 3.362410 1.200890 -0.311210
						CHANNELS 3 Zrotation Yrotation Xrotation
						JOINT LeftForeArm
						{
							OFFSET 4.983000 -0.000000 -0.000000
							CHANNELS 3 Zrotation Yrotation Xrotation
							JOINT LeftHand
							{
								OFFSET 3.483560 -0.000000 -0.000000
								CHANNELS 3 Zrotation Yrotation Xrotation
								JOINT LeftFingerBase
								{
									OFFSET 0.000000 0.000000 0.000000
									CHANNELS 3 Zrotation Yrotation Xrotation
									JOINT LeftHandIndex1
									{
										OFFSET 0.715260 -0.000000 -0.000000
										CHANNELS 3 Zrotation Yrotation Xrotation
										End Site
										{
											OFFSET 0.000000 0.000000 0.000000
										}
									}
								}
								JOINT LThumb
								{
									OFFSET 0.000000 0.000000 0.000000
									CHANNELS 3 Zrotation Yrotation Xrotation
									End Site
									{
										OFFSET 0.000000 0.000000 0.000000
									}
								}
							}
						}
					}
				}
				JOINT RightShoulder
				{
					OFFSET 0.000000 0.000000 0.000000
					CHANNELS 3 Zrotation Yrotation Xrotation
					JOINT RightArm
					{
						OFFSET -3.136600 1.374050 -0.404650
						CHANNELS 3 Zrotation Yrotation Xrotation
						JOINT RightForeArm
						{
							OFFSET -5.241900 -0.000000 -0.000000
							CHANNELS 3 Zrotation Yrotation Xrotation
							JOINT RightHand
							{
								OFFSET -3.444170 -0.000000 -0.000000
								CHANNELS 3 Zrotation Yrotation Xrotation
								JOINT RightFingerBase
								{
									OFFSET 0.000000 0.000000 0.000000
									CHANNELS 3 Zrotation Yrotation Xrotation
									JOINT RightHandIndex1
									{
										OFFSET -0.622530 -0.000000 -0.000000
										CHANNELS 3 Zrotation Yrotation Xrotation
										End Site
										{
											OFFSET 0.000000 0.000000 0.000000
										}
									}
								}
								JOINT RThumb
								{
									OFFSET 0.000000 0.000000 0.000000
									CHANNELS 3 Zrotation Yrotation Xrotation
									End Site
									{
										OFFSET 0.000000 0.000000 0.000000
									}
								}
							}
						}
					}
				}
			}
		}
	}
}
}
MOTION
Frames: 13
Frame Time: 0.008333
24.312417 16.469194 2.330589 175.605562 -85.357514 -147.526578 -8.191765 0.252560 -8.421215 -2.538983 0.651145 -4.180409 -5.745976 0.580883 2.049510 12.050522 -7.946476 -10.391989 -2.014012 -0.107936 -0.871960 0.000000 0.000000 0.000000 0.321539 19.571338 3.794162 -41.636346 8.818178 -36.762618 -2.310490 -45.245602 -0.032591 14.947021 0.939456 0.109770 -0.199316 0.118777 0.000000 0.000000 0.000000 0.000000 0.000000 0.000000 0.000000 10.451796 -1.466561 0.022745 48.659761 33.470470 15.461516 -179.980828 86.684136 179.961060 -5.882258 8.300045 -0.466498 0.126898 -0.602314 -0.000000 0.000000 0.000000 0.000000 0.000000 0.000000 0.000000 
24.106225 16.434508 2.334608 173.486460 -85.525494 -145.540034 -8.542918 0.129266 -8.499665 -2.604750 0.562980 -4.184982 -5.749284 0.491922 2.079156 12.402570 -8.015981 -10.376615 -1.976610 -0.105056 -0.867859 0.000000 0.000000 0.000000 0.191467 19.589393 3.764932 -41.720653 8.779673 -36.473420 -2.353161 -44.561646 -0.031539 15.137817 0.858907 0.100854 -0.195191 0.114465 0.000000 0.000000 0.000000 0.000000 0.000000 0.000000 0.000000 10.613936 -1.602070 0.047977 48.771049 33.322771 16.105559 -179.993714 86.356479 179.963848 -5.594340 8.518446 -0.455068 0.125165 -0.607374 -0.000000 0.000000 0.000000 0.000000 0.000000 0.000000 0.000000 
23.903230 16.404489 2.338589 170.914859 -85.739824 -143.096725 -8.863785 -0.004887 -8.555346 -2.662943 0.463401 -4.184138 -5.747576 0.392569 2.106004 12.718513 -8.084806 -10.356940 -1.943256 -0.102510 -0.863239 0.000000 0.000000 0.000000 0.033797 19.573673 3.730777 -41.857936 8.619016 -36.185842 -2.393047 -43.810197 -0.030591 15.419914 0.770783 0.091132 -0.189866 0.110083 0.000000 0.000000 0.000000 0.000000 0.000000 0.000000 0.000000 10.759043 -1.752999 0.072227 48.921623 33.149760 16.755327 179.993884 86.112100 179.967145 -5.244820 8.714474 -0.436253 0.121891 -0.611078 -0.000000 0.000000 0.000000 0.000000 0.000000 0.000000 0.000000 
23.703345 16.379996 2.343326 168.089870 -85.976923 -140.404135 -9.135246 -0.138618 -8.583894 -2.709891 0.361350 -4.177784 -5.740721 0.291618 2.129147 12.993525 -8.155099 -10.332599 -1.914062 -0.100330 -0.857710 0.000000 0.000000 0.000000 -0.160911 19.521676 3.691347 -42.061665 8.348194 -35.902106 -2.428865 -43.015777 -0.029753 15.781641 0.691953 0.082805 -0.183314 0.105590 0.000000 0.000000 0.000000 0.000000 0.000000 0.000000 0.000000 10.883411 -1.915220 0.096696 49.101616 32.950740 17.401813 179.982125 85.959487 179.970905 -4.834403 8.876499 -0.409453 0.117075 -0.613059 -0.000000 0.000000 0.000000 0.000000 0.000000 0.000000 0.000000 
23.506313 16.361592 2.349149 165.040527 -86.220422 -137.499583 -9.356269 -0.265922 -8.580341 -2.745559 0.262349 -4.164701 -5.728135 0.194542 2.151021 13.229237 -8.228431 -10.305227 -1.888725 -0.098465 -0.851667 0.000000 0.000000 0.000000 -0.383576 19.446715 3.646603 -42.352487 7.948683 -35.628504 -2.459805 -42.183704 -0.029059 16.203259 0.627761 0.076272 -0.175577 0.101229 0.000000 0.000000 0.000000 0.000000 0.000000 0.000000 0.000000 10.989261 -2.087174 0.120354 49.302588 32.723129 18.032422 179.971908 85.904506 179.975060 -4.366204 8.996699 -0.374772 0.110695 -0.613044 -0.000000 0.000000 0.000000 0.000000 0.000000 0.000000 0.000000 
23.312401 16.349667 2.356589 161.908403 -86.450642 -134.532692 -9.523499 -0.379606 -8.544515 -2.769387 0.172682 -4.145282 -5.709931 0.107304 2.172014 13.427329 -8.305495 -10.274985 -1.867203 -0.096921 -0.844946 0.000000 0.000000 0.000000 -0.634206 19.353590 3.596784 -42.741484 7.425897 -35.360063 -2.485565 -41.335223 -0.028518 16.661402 0.588716 0.073235 -0.166824 0.097103 0.000000 0.000000 0.000000 0.000000 0.000000 0.000000 0.000000 11.078974 -2.264620 0.143368 49.511366 32.464426 18.633883 179.963991 85.950685 179.979500 -3.849349 9.070841 -0.333109 0.102913 -0.610875 -0.000000 0.000000 0.000000 0.000000 0.000000 0.000000 0.000000 
23.121025 16.344394 2.366440 158.950377 -86.652382 -131.759833 -9.630576 -0.473142 -8.483627 -2.779906 0.097668 -4.121487 -5.686184 0.034657 2.192247 13.588713 -8.386653 -10.241481 -1.849390 -0.095722 -0.837083 0.000000 0.000000 0.000000 -0.918293 19.244444 3.542061 -43.233965 6.797058 -35.083298 -2.506616 -40.498946 -0.028117 17.129855 0.585159 0.075194 -0.157368 0.093253 0.000000 0.000000 0.000000 0.000000 0.000000 0.000000 0.000000 11.153187 -2.443138 0.166064 49.712196 32.171654 19.194413 179.958905 86.097995 179.984101 -3.298695 9.099074 -0.286357 0.094056 -0.606508 -0.000000 0.000000 0.000000 0.000000 0.000000 0.000000 0.000000 
22.931989 16.345723 2.378695 156.186423 -86.821929 -129.200180 -9.687508 -0.547331 -8.402243 -2.779241 0.037238 -4.094059 -5.657317 -0.023691 2.213039 13.721033 -8.471788 -10.205327 -1.834948 -0.094836 -0.828223 0.000000 0.000000 0.000000 -1.224806 19.126831 3.483309 -43.835455 6.062225 -34.783877 -2.523620 -39.689931 -0.027872 17.583039 0.618102 0.082853 -0.147592 0.089889 0.000000 0.000000 0.000000 0.000000 0.000000 0.000000 0.000000 11.218801 -2.621361 0.187241 49.895470 31.838969 19.699218 179.957684 86.342697 179.988644 -2.731377 9.085100 -0.236920 0.084466 -0.600060 -0.000000 0.000000 0.000000 0.000000 0.000000 0.000000 0.000000 
22.744547 16.353468 2.393612 153.749687 -86.959180 -126.980074 -9.695308 -0.602433 -8.310715 -2.767553 -0.009004 -4.065274 -5.623992 -0.068495 2.234264 13.829755 -8.559753 -10.165893 -1.823581 -0.094270 -0.817998 0.000000 0.000000 0.000000 -1.550381 19.001805 3.421258 -44.545240 5.239068 -34.437233 -2.537707 -38.932959 -0.027776 17.998180 0.690815 0.096712 -0.137969 0.087083 0.000000 0.000000 0.000000 0.000000 0.000000 0.000000 0.000000 11.279210 -2.796289 0.206135 50.050172 31.459750 20.135219 179.960951 86.677624 179.993006 -2.168994 9.036389 -0.187287 0.074625 -0.591763 -0.000000 0.000000 0.000000 0.000000 0.000000 0.000000 0.000000 
22.558734 16.367313 2.411192 151.708362 -87.068886 -125.160836 -9.657034 -0.640827 -8.219334 -2.745579 -0.043246 -4.037294 -5.587245 -0.102149 2.255547 13.921626 -8.649870 -10.122725 -1.814798 -0.094009 -0.806168 0.000000 0.000000 0.000000 -1.888122 18.870080 3.356631 -45.359573 4.343715 -34.015443 -2.550113 -38.248857 -0.027824 18.356695 0.802963 0.117174 -0.128983 0.084900 0.000000 0.000000 0.000000 0.000000 0.000000 0.000000 0.000000 11.337932 -2.966396 0.221560 50.170283 31.027714 20.490451 179.969108 87.093165 179.997002 -1.633836 8.962607 -0.140257 0.065026 -0.581958 -0.000000 0.000000 0.000000 0.000000 0.000000 0.000000 0.000000 
22.373789 16.386824 2.431295 150.100669 -87.158303 -123.770002 -9.575381 -0.665422 -8.138389 -2.714137 -0.068210 -4.012313 -5.548319 -0.127489 2.276213 14.003761 -8.741446 -10.075284 -1.808047 -0.094032 -0.792524 0.000000 0.000000 0.000000 -2.230396 18.731142 3.289983 -46.272270 3.394084 -33.488684 -2.561980 -37.656791 -0.028003 18.644823 0.951566 0.143741 -0.121094 0.083363 0.000000 0.000000 0.000000 0.000000 0.000000 0.000000 0.000000 11.398255 -3.130626 0.232598 50.252716 30.536391 20.754325 179.982159 87.577220 -179.999502 -1.146605 8.874061 -0.097824 0.056151 -0.571039 -0.000000 0.000000 0.000000 0.000000 0.000000 0.000000 0.000000 
22.189631 16.411484 2.453645 148.943246 -87.234557 -122.814205 -9.452850 -0.679273 -8.076908 -2.674095 -0.086780 -3.992323 -5.508643 -0.147443 2.295191 14.082338 -8.833931 -10.022813 -1.802773 -0.094315 -0.776826 0.000000 0.000000 0.000000 -2.569198 18.583251 3.221673 -47.274571 2.408761 -32.826532 -2.574244 -37.173051 -0.028298 18.854173 1.131504 0.175516 -0.114692 0.082453 0.000000 0.000000 0.000000 0.000000 0.000000 0.000000 0.000000 11.462303 -3.288368 0.238414 50.298477 29.981180 20.918816 179.999733 88.116637 -179.996602 -0.725474 8.780546 -0.061683 0.048422 -0.559410 -0.000000 0.000000 0.000000 0.000000 0.000000 0.000000 0.000000 
22.005860 16.440843 2.477965 148.252215 -87.304688 -122.302689 -9.290102 -0.684948 -8.042104 -2.625930 -0.101555 -3.979065 -5.469715 -0.164603 2.310859 14.161804 -8.927251 -9.964635 -1.798416 -0.094835 -0.758849 0.000000 0.000000 0.000000 -2.899634 18.423472 3.151765 -48.355165 1.407256 -31.999895 -2.587598 -36.812699 -0.028688 18.980268 1.336605 0.211200 -0.110052 0.082101 -0.000000 0.000000 0.000000 0.000000 0.000000 0.000000 0.000000 11.530094 -3.439271 0.238531 50.311673 29.359067 20.977945 -179.978967 88.697576 -179.994343 -0.382555 8.689699 -0.032832 0.042123 -0.547427 -0.000000 0.000000 0.000000 0.000000 0.000000 0.000000 0.000000 
